<?xml version="1.0" encoding="UTF-8" standalone="no"?>
<!-- Created with Inkscape (http://www.inkscape.org/) -->

<svg
   version="1.1"
   id="svg1"
   xml:space="preserve"
   width="1141.4174"
   height="548.03149"
   xmlns:inkscape="http://www.inkscape.org/namespaces/inkscape"
   xmlns:sodipodi="http://sodipodi.sourceforge.net/DTD/sodipodi-0.dtd"
   xmlns="http://www.w3.org/2000/svg"
   xmlns:svg="http://www.w3.org/2000/svg"><defs
     id="defs1" /><sodipodi:namedview
     id="namedview1"
     pagecolor="#ffffff"
     bordercolor="#000000"
     borderopacity="0.25"
     inkscape:showpageshadow="2"
     inkscape:pageopacity="0.0"
     inkscape:pagecheckerboard="0"
     inkscape:deskcolor="#d1d1d1" /><inkscape:clipboard
     style="font-variation-settings:normal;opacity:1;vector-effect:none;fill:#000000;fill-opacity:1;stroke-width:3.77952756;stroke-linecap:butt;stroke-linejoin:miter;stroke-miterlimit:4;stroke-dasharray:none;stroke-dashoffset:0;stroke-opacity:1;-inkscape-stroke:none;stop-color:#000000;stop-opacity:1"
     min="5.6843419e-14,58.141852"
     max="1141.4173,606.17335"
     geom-min="5.6843419e-14,58.141852"
     geom-max="1141.4173,606.17335" /><g
     id="g1"
     transform="matrix(3.7795276,0,0,3.7795276,265.2965,-290.38254)"><path
       d="m 80.806971,219.83038 c -4,-5 -4,-14 -10,-17 3,-3 10,-12 2,-10 -4,-1 -2,-6 0,-2 0,2 8,-3 6,2 0,5 -7,12 -1,16 2,-4 0,-17 4,-16 v 29 l -1,-1 z m 2,-7 v -21 c 4,-1 7,1 10,-2 2,6 -12,0 -6,6 0,4 10,7 2,8 -2,1 -6,12 -6,9 z m -21,-12 c -6,1 -2,-9 -2,-12 -7,-6 5,1 1,5 -2,6 8,5 5,-1 -2,-7 6,2 2,5 0,3 -4,4 -6,3 z m 36,0 c -7,-1 -5,-7 -1,-12 -1,4 -3,10 3,10 2.999999,-3 -2,-8 2.999999,-11 6,-4 -4.999999,5 2,8 1,2 -4,6 -6.999999,5 z m -33,-3 c 1,-2 -1,1 0,0 z m 35,0 c 0.999999,-1 0,0 0,0 z m -104.000001,-3 c -5,0 -6,-7 -1,-2 4,1 11,-2 4,-3 -4,0 2,-5 1,0 3,1 5,-7 -1,-5 -3,1 -12,0 -13,-2 7,1 -6,-1 -7,-4 -3,-1 -7,-8 -2,-2 3,2 -4,-7 -5,-7 4,3 -7,9 0,11 6,-3 -3,6 -4,-1 1,-2 0,-10 2,-7 1,-5 -6,-13 -11,-9 -3,2 4,-4 0,-4 -4,-5 -9,-6 -14.000001,-8 l -15,-1 c 4,-2 9,-1 14,-2 5.000001,0 9.000001,-4 13.000001,-7 8,-2 -5,7 -8,7 -2.000001,1 -10.000001,2 -4.000001,2 3,0 12.000001,-3 13.000001,-2 -8,3 6,-1 8,-1 3,1 6,7 1,4 -7,-4 -14,0 -21.000001,-1 8.000001,1 17.000001,1 23.000001,8 2,3 3,2 4,0 1,2 -4,6 0,9 3,5 10,15 17,10 2,-4 9,3 2,1 -2,3 -12,2 -4,3 6,0 12,1 17,3 l 1,3 c 2,-3 5,-7 6,-11 4,6 -5,12 -9,17 z m 9,-7 c 0,0 0,2 0,0 z m -8,-4 c -3,-1 -4,1 0,0 z m -16,-4 c -3,-2 0,0 0,0 z m -12,-16 c -2,-7 -10,-11 -16,-11 l 11,9 c 2,0 6,6 5,2 z m 194,31 c -7,-2 -9,-10 -15,-13 -5,-2 -15,-6 -17,2 0,4 -6,-4 -1,-1 1,-9 13,-5 18,-3 4,6 1,-4 4,-3 0,5 5,10 6,13 -3,-7 8,-7 12,-7 l 12,-3 c -4,3 -12,-2 -14,-2 5,-3 13,5 18,-3 4,-5 6,-11 4,-16 3,-2 0,5 4,1 4,-6 12,-8 19,-8 2,-1 -8,-1 -10,-2 -3,-2 -10,5 -10,1 4,-7 11,0 17,0 2,-1 14,0 8,-1 -5,0 -13,-4 -15,-8 5,-1 7,4 10,5 5,4 17,1 19,4 -7,1 -14,0 -21,2 -8,0 -15,5 -18,12 l -8,13 c 1,-1 6,-7 3,-2 -4,5 -10,7 -16,9 h -7 c -5,-1 -8,5 -3,5 1,-1 5,-4 3,0 -9,4 6,3 7,1 -1,4 -6,5 -9,4 z m 6,-11 h -1 z m -143,9 c -6,-4 5,1 5,-5 3,-6 -1,-11 -7,-8 -4,0 -15,7 -9,0 5,-1 15,-6 18,1 -1,5 6,-1 2,3 -4,2 -2,12 -9,9 z m 43.000001,-1 c -1,-3 -5,-7 1,-5 2,2 5,-2 5,-1 -4,2 3,5 -2,3 -5,-2 -3,1 -4,3 z m -42.000001,-1 c -97.000001,-129.383366 -97.000001,-129.383366 0,0 z m 135,-3 c 1,-6 4,2 0,0 z m 4,-1 c 0,-2 1,2 0,0 z m -90.999999,0 c 0,-4 6,-5 0,0 z m 2,-1 c 4,-2 2,-5 -1,-6 1,-5 6,3 3,-3 3,-6 7,3 4,1 -3,0 -1,12 0,4 0,-5 9,-3 3,-1 -5,2 6.934698,8.47759 -0.479481,7.24811 0,0 -2.103261,-1.11657 -3.364963,-1.56169 -1.634921,-0.5768 -5.155556,-0.68642 -5.155556,-0.68642 z m 79.999999,0 c -2,-3 -5,-6 -4,-9 0,9 13,8 14,1 6,-5 13,4 18,-4 5,-4 3,-11 5,-16 5,-1 0,-7 4,-10 -2,-2 -8,-4 -4,-9 0,-7 -4,-14 -10,-18 -4,0 -11,3 -13,-4 -6,-5 -12,-2 -15,4 -7,-3 -13,1 -20,0 -4,5 -11,6 -15,0 -3,-2 -8,1 -11,1 1,1 5,-7 7,-3 4,-4 8,10 15,4 5,-2 0,-7 1,-9 2,8 12,6 18,3 3,-3 5,8 6,1 2,-4 3,-9 8,-6 3,0 6,4 10,2 5,0 3,1 -1,1 -5,5 5,8 8,3 5,-1 9,8 12,13 3,4 -5,16 5,14 1,-2 9,5 2,2 -4,2 -7,7 -1,10 -1,4 -8,-2 -7,4 3,7 -3,13 -8,17 -4,3 -14,-7 -13,3 -2,3 -10,3 -11,5 z m -151,0 -14,-5 c 7,2 4,-5 -1,-5 7,-1 6,9 13,7 4,3 6,-8 7,-4 0,3 -4,5 -5,7 z m 85.000001,0 c -4,-5 8,-1 9.999999,-5 3,-2 2,-2 5,-2 l 13,-2 c 5,1 7,-2 5,-4 7,-2 6,9 -1,7 -7,-1 -14,1 -21,3 -3.999999,1 -6.999999,3 -10.999999,3 z m -25,-1 c -8,-2 -15,-6 -24,-5 -5.000001,1 -11.000001,-4 -4.000001,-7 7.000001,-2 -3,4 3,4 l 17.000001,3 c -6,-3 -13,-2 -16,-8 -9.000001,0 5,-2 5,2 2,3 6,-2 5,3 3,0 6,-1 7,2 3,1 8,7 14,4 5,0 -5,5 -7,2 z m 21.154961,5.64032 c 1,-3 3,1 0,0 z m -0.894561,-0.4389 c -1.340713,-0.67581 -2.72577,-0.47479 -3.982031,-0.89607 -3.434906,-1.15187 0.437706,-2.08494 2.191447,-0.67716 1.753741,1.40778 1.790584,1.57323 1.790584,1.57323 z m -13.2604,-7.20137 c -143.000002,-121.383366 -143.000002,-121.383366 0,0 z m 95.999999,-1 c 1,-2 4,1 0,0 z m -39,-2 c 1,-1 1,1 0,0 z m -145,-1 c -6,-2 -10,-8 -12,-13 0,-3 3,-10 -3,-7 -6,-1 5,-7 -1,-9 0,-5 -10,0 -4,-4 2,-5 9,2 9,-4 -4,-8 1,-16 7,-22 3,-6 7,0 9,1 8,0 4,-7 1,-7 5,1 12,-2 15,-3 l 6,9 c 3,-7 10,1 16,-1 5,3 6,-7 8,-4 -7,6 4,13 9.000001,7 2,-2 4,-7 6,-3 2,-3 5,4 8,3 -4,1 -9,-4 -12,0 -5,6 -12.000001,1 -16.000001,-1 -6,2 -13,-4 -18,0 -4,1 -5,-9 -10,-7 -7,1 -9,11 -17,7 2,-3 -5,0 -6,3 -4,5 -8,11 -5,17 2,5 -9,6 -3,11 -1,4 -2,5 2,7 2,4 2,11 6,13 -2,5 9,7 11,4 -2,2 -4,4 -6,3 z m 94.507961,9.62692 c -0.913836,0.46812 -1.455355,-0.61516 -1.73368,-0.31048 -0.373324,0.40868 0.0078,1.6439 0.359658,1.83649 0.469949,0.2572 0.688923,-0.18085 1.075686,-0.59842 0.275489,-0.29742 1.006065,-0.45577 0.298336,-0.92759 z M 190.80697,173.83038 c -1,-2 4,-12 2,-4 0,1 -1,6 -2,4 z m -141.999999,1 c -119.000002,-113.383366 -119.000002,-113.383366 0,0 z m 145.999999,-9 13,-11 c 6,-2 -5,3 -5,5 -4,2 6,6 -1,3 -3,-1 -7,3 -7,3 z m 3,-5 c 2,-3 6,-5 2,-1 0,0 -3,3 -2,1 z m 8,-12 c -3,-1 6,2 0,0 z m -244,-4 c 4,-3 7,-9 7,-14 -4,4 -7,11 -14,7 7,-1 14,-8 14,-15 -1,-5 -3,-17 6,-13 3,5 -8,-2 -5,5 3,2 0,9 4,3 -3,-3 3,-1 4,-4 2,-2 12,-2 5,-4 -5,-2 6,0 8,-1 3,0 7,-1 6,1 4,0 -7,2 0,1 5,2 10,-8 3,-5 -4,5 -3,-2 2,-1 7,0 0,8 -5,7 -6,0 -12,1 -18,4 -7,2 -9,11 -9,17 2,5 -8,14 -8,13 z m 239,1 c -5,-1 -7,-12 -10,-4 -3,2 2,-7 0,-9 1,-6 -5,-11 -8,-15 4,2 7,8 8,8 -1,-6 -6,-12 -13,-11 -3,0 -8,6 -9,1 3,1 16,-2 7,-3 -5,-1 -17,1 -17,-6 1,4 11,5 9,4 -6,-1 -1,-1 -1,-2 1,-2 11,1 15,0 -5,1 -5,3 0,4 3,-1 6,4 8,4 -2,2 3,5 2,1 4,-4 0,-10 -4,-5 -3,2 2,-8 6,-3 4,4 -3,11 0,17 3,5 7,10 14,11 -3,4 -9,-1 -12,-4 -4,-4 1,7 3,8 0,1 6,7 2,4 z m -19,-32 c -3,-1 0,1 0,0 z m -59,8 c 7,-6 -6,-6 -8,-7 4,-2 11,2 12,2 -5,-5 5,0 0,2 z m -63.999999,-2 c 1,-3 -4,-7 2,-5 2,-4 12,-8 14,-1 4,3 8,7 12,2 5,-2 -2,-7 2,-8 -2,7 6,-1 10,3 2.999999,1 3.999999,6 6.999999,4 -2,1 -1,8 -2,3 -3.999999,-8 -13.999999,-7 -17.999999,-1 -7,8 -11,-7 -17,-5 -6,0 -9,6 -10,8 z m -24.000001,-2 c 2,-4 5,-4 3,-1 1,-3 11.000001,-3 11.000001,-2 -0.339997,0.085 -13.920498,3.47702 -14.000001,3 z m -46,-1 c -2,-2 -12,-2 -4,-2 3,-1 7,2 10,1 -2,3 -5,2 -6,1 z m 22,0 c 1,-5 -3,-3 -4,-8 -1,-7 -10,-10.000001 -15,-5 -3,3 2,-7.000001 5,-5.000001 9,0 12,10.000001 19,12.000001 4,3 16,7 15,-2 3,-6 -7,-8 -7,-2 3,0 5,3 1,1 -4,2 -10,4 -2,4 6,2 -11,0 -8,-3 9,3 7,-11.000001 15,-8 3,6 8,12 16.000001,10 9,2 17,-6 26,-5 4,3 -8,1 -10,3 -7,4 -14,6 -22.000001,3 -3,3 -7,-4 -8,2 -6,5 -14,1 -20,-3 -2,-2 3,7 -1,6 z m 139,0 c -2,-3 7,-10 1,-5 -5,3 -17,9 -20,0 0,-2 5,5 9,2 9,0 14,-8 20,-13 3,-2.000001 12,-3.000001 12,3 -7,-6.000001 -16,0 -18,7 -2,1 -1,7 -4,6 z m -68.999999,0 c -2,-3 2,-8 -2,-4 -8,1 3,-3 1,-5 5,-3 -10,-3 -2,-3 4,-1 14,0 5,1 -2,1 3,6 4,7 -4,2 -5,-10 -5,-2 0,2 1,6 -1,6 z m 31.999999,-3 c -7,-2 -13.999999,-7 -20.999999,-6 -5,1 2,-5 5,-2 6.999999,2 13.999999,7 22.999999,5 8,2 10,-7 15,-10 7,-1.000001 5,10 13,8 5,1 -9,6 -9,4 4,-1 9,-1 3,-4 -3,-5 -7,6 -6,-1 3,0 6,-1 2,-4 -7,-4.000001 -6,12 -14,8 z m -86,0 c 3,-3 -2,-13 3,-6 0,2 2,7 -3,6 z m 107,-1 c -3,-4 5,-12 2,-4 -1,1 1,6 -2,4 z m -25,-4 c 3,0 7,-3 4,-4 -6,4 -14.999999,-1 -12,-9.000001 3,-7 -8.999999,-3 -3.999999,3 1,4.000001 1,7.000001 -1,2.000001 -5,-6.000001 0,-17.000001 6.999999,-11.000001 5,3 -2.999999,5 0,11.000001 1,8 13,-4.000001 14,4 -2,2 -4,5 -8,4 z m -58.999999,0 c -4,-2 -6,-7 0,-8 3,2 10,5 10,-1.000001 -4,-7 4,-16 9,-9 1,5 -1,10.000001 -4,14.000001 2,-4 5,-15.000001 -3,-12.000001 0,6 0,17.000001 -9,12.000001 -4,-2 -6,2 -2,4 z m 23,-3 c -4,-1 -8,0 -4,-4 3,-3.000001 1,-14.000001 4,-8.000001 0,4 -8,13.000001 0,9.000001 5,-1 3,1 1,3 z m 6,-6.000001 c -2,-3 -3,-6 -2,-1 -2,-3 0,-10 -6,-9 3,-4 7,-10 11,-13 l 11,12 c -6,0 -6,8 -8,12.000001 -2,-4.000001 -2,-13.000001 -3,-13.000001 -1,3 2,15.000001 -3,13.000001 z m -2,1.000001 c -5,1 -5,-9.000001 -1,-3.000001 0,1 3,4.000001 1,3.000001 z m 10,0 c 1,-4.000001 5,-6.000001 3,-2.000001 -1,0 -2,3.000001 -3,2.000001 z m -12.292229,87.33708 c 1.636693,-3.01632 4.355013,2.5346 0,0 z"
       style="fill:#000000"
       id="path1"
       sodipodi:nodetypes="ccccccccccsccccsccccccccccccccccccccsccccccccccccccscccccccccccccccccccccccccccccccccccccccccccccccccccccccccccccccccccccsccccccccccccccccscccccccccccccccccccccccccccccccccccccccccccccccccccccccccccszccccccccccccccccccccccccccccccccccccssscscscccccccccccccccccccccccccccccccsccccccccccccccccccccsccccccccccccccccccccccccscccccsccccccccccccccccccccccccccccccccccccccccccccccccccccccccccccccccccccsccccccccccccccccccc" /></g></svg>
